<svg viewBox="0 0 280 90" xmlns="http://www.w3.org/2000/svg">
  <defs>
    <linearGradient id="purpleGradient" x1="0%" y1="0%" x2="100%" y2="100%">
      <stop offset="0%" style="stop-color:#5E2C91;stop-opacity:1" />
      <stop offset="100%" style="stop-color:#8B5FB5;stop-opacity:1" />
    </linearGradient>
    <linearGradient id="accentGradient" x1="0%" y1="0%" x2="100%" y2="0%">
      <stop offset="0%" style="stop-color:#2B5CB8;stop-opacity:1" />
      <stop offset="100%" style="stop-color:#5E2C91;stop-opacity:1" />
    </linearGradient>
  </defs>
  
  <g id="logoIcon" transform="translate(5, 15)">
    <circle cx="40" cy="30" r="8" fill="url(#purpleGradient)"/>
    <circle cx="20" cy="5" r="5" fill="#5E2C91"/>
    <circle cx="20" cy="55" r="5" fill="#5E2C91"/>
    <circle cx="60" cy="5" r="5" fill="#5E2C91"/>
    <circle cx="60" cy="55" r="5" fill="#5E2C91"/>
    <line x1="40" y1="30" x2="20" y2="5" stroke="url(#accentGradient)" stroke-width="2" opacity="0.6"/>
    <line x1="40" y1="30" x2="20" y2="55" stroke="url(#accentGradient)" stroke-width="2" opacity="0.6"/>
    <line x1="40" y1="30" x2="60" y2="5" stroke="url(#accentGradient)" stroke-width="2" opacity="0.6"/>
    <line x1="40" y1="30" x2="60" y2="55" stroke="url(#accentGradient)" stroke-width="2" opacity="0.6"/>
    <circle cx="68" cy="0" r="12" fill="#2B5CB8" opacity="0.15"/>
    <path d="M 68 -6 L 68 6 M 62 0 L 74 0" stroke="#2B5CB8" stroke-width="2.5" stroke-linecap="round"/>
    <path d="M 15 15 L 25 15 L 25 25" stroke="#8B5FB5" stroke-width="1.5" fill="none" opacity="0.4"/>
    <path d="M 65 15 L 55 15 L 55 25" stroke="#8B5FB5" stroke-width="1.5" fill="none" opacity="0.4"/>
    <circle cx="25" cy="25" r="2" fill="#8B5FB5" opacity="0.4"/>
    <circle cx="55" cy="25" r="2" fill="#8B5FB5" opacity="0.4"/>
  </g>
  
  <text x="95" y="35" font-family="Arial, sans-serif" font-size="24" font-weight="700" fill="#5E2C91">AI+ Bootcamp</text>
  <text x="95" y="55" font-family="PingFang SC, Microsoft YaHei, sans-serif" font-size="14" font-weight="500" fill="#6C757D">AI交叉创新营</text>
  <rect x="95" y="60" width="80" height="2" fill="url(#accentGradient)" rx="1" opacity="0.6"/>
</svg>
